<?xml version="1.0" encoding="UTF-8" standalone="no"?>
<!-- Created with Inkscape (http://www.inkscape.org/) -->

<svg
   width="61.772186mm"
   height="33.776459mm"
   viewBox="0 0 61.772186 33.776459"
   version="1.1"
   id="svg8631"
   inkscape:version="1.2.2 (b0a8486541, 2022-12-01)"
   sodipodi:docname="Zeichnung.svg"
   xmlns:inkscape="http://www.inkscape.org/namespaces/inkscape"
   xmlns:sodipodi="http://sodipodi.sourceforge.net/DTD/sodipodi-0.dtd"
   xmlns="http://www.w3.org/2000/svg"
   xmlns:svg="http://www.w3.org/2000/svg">
  <sodipodi:namedview
     id="namedview8633"
     pagecolor="#ffffff"
     bordercolor="#000000"
     borderopacity="0.25"
     inkscape:showpageshadow="2"
     inkscape:pageopacity="0.0"
     inkscape:pagecheckerboard="0"
     inkscape:deskcolor="#d1d1d1"
     inkscape:document-units="mm"
     showgrid="false"
     inkscape:zoom="2.9540685"
     inkscape:cx="273.01331"
     inkscape:cy="486.10925"
     inkscape:window-width="1920"
     inkscape:window-height="1009"
     inkscape:window-x="1912"
     inkscape:window-y="-8"
     inkscape:window-maximized="1"
     inkscape:current-layer="layer1" />
  <defs
     id="defs8628" />
  <g
     inkscape:label="Ebene 1"
     inkscape:groupmode="layer"
     id="layer1"
     transform="translate(-40.336701,-104.73709)">
    <g
       aria-label="PHISCH"
       id="text8661"
       style="font-weight:bold;font-size:14.0688px;font-family:Rockwell;-inkscape-font-specification:'Rockwell, Bold';opacity:1;fill:#000000;stroke-width:0.14655"
       transform="translate(0.35826297)"
       inkscape:export-filename="logo_phisch_black.png"
       inkscape:export-xdpi="338.40128"
       inkscape:export-ydpi="338.40128">
      <path
         id="path9160"
         style="fill:#000000"
         d="m 87.70305,130.09314 c -0.47508,-1.02491 -0.845485,-2.03714 -1.128156,-3.03614 0.135679,-0.0427 0.273495,-0.0829 0.413542,-0.12044 0.461069,-0.11999 0.944225,-0.19779 1.441876,-0.22723 0.103864,-0.005 0.20837,-0.009 0.31345,-0.0104 -0.329142,-3.17497 -0.09742,-7.59749 0.02323,-10.64626 -0.364603,-0.0363 -0.724935,-0.0742 -1.077792,-0.11264 -0.423755,-0.0425 -0.838038,-0.0789 -1.243008,-0.10756 0.202211,-0.91457 0.450263,-1.82896 0.740763,-2.7317 0.291701,0.0573 0.584383,0.11123 0.876503,0.15903 0,0 0,0 0,0 0.317455,0.0525 0.636034,0.0943 0.952151,0.12251 0,0 0,0 0,0 0.820335,0.0752 1.613081,0.0538 2.357788,-0.11247 0,0 0,0 0,0 0.44034,-0.0986 0.865031,-0.2477 1.266518,-0.45425 0,0 0,0 0,0 0.215442,-0.11021 0.42291,-0.23405 0.623072,-0.3705 0.688249,1.14477 1.269028,2.27927 1.735191,3.40737 -0.302403,0.099 -0.617782,0.18575 -0.946918,0.25917 -0.224778,0.0432 -0.452365,0.0779 -0.682407,0.10474 0.442171,1.35647 0.73606,2.68258 0.877075,3.98955 0.262655,0.0155 0.523482,0.0254 0.782306,0.0291 1.465967,-0.0299 2.699344,-0.17326 3.73788,-0.41061 -0.27764,-1.66133 -0.823387,-3.32798 -1.627553,-4.99879 -0.38101,0.25136 -0.791078,0.47845 -1.233339,0.67682 -0.532885,-1.18681 -1.196243,-2.37717 -1.982787,-3.57364 1.539159,-1.36918 2.590875,-3.50539 3.559713,-5.70462 1.135048,1.65773 2.07885,3.34277 2.835532,5.05552 -0.2464,0.43982 -0.522409,0.8753 -0.833823,1.29532 2.922603,6.14917 3.022273,12.57712 0.280428,19.05011 0.372435,0.3038 0.720155,0.59658 1.039075,0.8635 -0.65682,1.87797 -1.489529,3.77136 -2.497046,5.67142 -1.54677,-1.93936 -2.956664,-4.27321 -4.507558,-6.09849 0.80867,-1.02357 1.490146,-2.07308 2.038092,-3.1475 0.45581,0.25084 0.886299,0.51015 1.292769,0.77214 1.019875,-1.97055 1.618987,-3.98443 1.795375,-6.02915 -1.067278,-0.0617 -2.312493,-0.17936 -3.801564,-0.34808 -0.272974,-0.0388 -0.547954,-0.082 -0.824869,-0.12908 -0.117706,1.57221 -0.466494,3.07637 -1.010903,4.54198 0.262321,0.10678 0.521115,0.21622 0.77658,0.32736 0.29087,0.12428 0.573018,0.25329 0.846687,0.38598 -0.477865,0.99485 -1.068104,1.96251 -1.761816,2.90422 -0.161894,-0.16896 -0.32566,-0.33124 -0.491569,-0.4858 -0.308081,-0.28889 -0.631542,-0.54475 -0.973951,-0.7608 0,0 0,0 0,0 -0.563099,-0.36016 -1.171394,-0.5955 -1.78217,-0.61688 -0.2341,-0.0111 -0.473066,0.009 -0.713064,0.0565 0,0 -1e-6,0 -1e-6,0 -0.325729,0.0603 -0.652957,0.1655 -0.972114,0.30717 -0.173215,0.0744 -0.34412,0.15937 -0.513189,0.25355 z m -2.189791,-18.29061 c 0.471236,0.2751 0.953032,0.5306 1.452902,0.7588 0,0 0.0037,0.002 0.0037,0.002 1e-5,-2e-5 -0.01235,0.0221 -0.01234,0.0221 0,0 0,0 0,0 -1.015618,1.82264 -1.726191,3.65264 -1.955456,5.61457 -0.6011,-8e-5 -1.161363,0.003 -1.689256,0.009 -0.254113,-2.27516 -0.396571,-3.78754 -1.375425,-4.11011 -0.0022,-7.3e-4 -0.0044,-10e-4 -0.0066,-0.002 -0.207412,-0.0665 -0.413371,-0.0771 -0.617564,-0.0242 0,0 -10e-7,0 -10e-7,0 -0.569038,0.14134 -1.154227,0.78254 -1.574991,1.98794 -0.566448,1.6334 -0.726409,3.74311 -0.240676,5.94991 0.371636,1.68844 1.027481,3.00376 1.733575,3.93343 0.2497,0.33152 0.5078,0.61413 0.764942,0.8511 0.07868,0.0718 0.156184,0.13863 0.232216,0.20046 0.87756,0.7184 1.537037,0.77954 1.890126,0.44514 0.334283,-0.31664 0.33855,-0.93014 0.213826,-1.86842 -0.124318,-0.93528 -0.383011,-2.08434 -0.582222,-3.51162 0.689332,0.39107 1.421955,0.74083 2.164815,1.07555 0.461119,3.81443 1.55202,5.87784 0.830437,7.23396 -0.366811,0.68939 -1.166523,1.04007 -2.578443,0.55105 -0.318763,-0.11051 -0.665471,-0.26578 -1.029464,-0.47262 0,0 0,0 0,0 -0.05643,-0.0321 -0.113361,-0.0654 -0.170752,-0.0999 -2.017197,-1.21923 -4.171952,-3.65374 -5.149517,-7.74158 -0.686488,-2.87065 -0.585485,-5.75217 0.0022,-8.05201 0.595672,-2.33124 1.601192,-3.88265 2.641163,-4.60866 0.968394,-0.68072 1.87577,-0.68165 2.606706,-0.24231 0,0 0,0 0,0 0.06832,0.041 0.135164,0.0859 0.20056,0.13426 0.114753,0.085 0.221135,0.17772 0.319602,0.2774 0,0 0,0 0,0 0.72613,0.73376 1.017589,1.84457 1.168529,3.07292 0.229111,-0.46707 0.48211,-0.92879 0.757526,-1.38552 0,0 -6.3e-5,1.3e-4 -6.3e-5,1.3e-4 z M 70.4125,138.17288 c -0.333244,-3.76459 -0.619141,-7.40702 -0.830694,-11.16016 0.606963,-0.0247 1.204438,-0.0695 1.785027,-0.13578 0.05244,-0.006 0.104806,-0.0126 0.157089,-0.0191 0.07923,-0.009 0.158467,-0.0188 0.237718,-0.0289 0.212626,1.97949 0.620897,3.4069 1.196116,4.23438 0.573205,0.81298 1.171515,1.10193 1.730199,0.9025 0.437883,-0.15619 0.724888,-0.61584 0.870582,-1.33784 0.142716,-0.73715 0.11505,-1.50228 -0.04971,-2.3212 -0.175558,-0.8726 -0.433642,-1.5645 -0.784504,-2.09986 -0.354168,-0.55129 -0.919321,-1.15286 -1.673391,-1.88924 -0.756318,-0.72972 -1.382612,-1.50853 -1.879184,-2.24944 -0.05582,-0.084 -0.110264,-0.16777 -0.163294,-0.25112 -0.455405,-0.72217 -0.814423,-1.42201 -1.069311,-2.06986 -0.537209,-1.38026 -0.841568,-3.28908 -0.84689,-5.64948 -0.0064,-2.85423 0.400963,-5.0823 1.314555,-6.57157 0.342703,-0.55865 0.71178,-0.99538 1.099969,-1.30882 0.07512,-0.0607 0.150899,-0.11666 0.227248,-0.168 0.582935,-0.39145 1.195916,-0.5107 1.802754,-0.3616 1.25456,0.30814 1.984829,1.62736 2.238539,3.68033 0.166421,-0.82366 0.352604,-1.65093 0.558201,-2.48241 0.486203,0.17964 0.96817,0.37243 1.445746,0.57647 0.06782,0.029 0.135553,0.0582 0.203193,0.0876 0.294098,0.12794 0.586487,0.26007 0.877552,0.39572 -0.915572,2.83688 -1.514941,5.59545 -1.787348,8.30118 0.35291,0.0557 -1.304485,-0.20556 -0.951575,-0.14982 -3.84e-4,-6e-5 -0.172377,-0.0268 -0.172761,-0.0269 -0.360299,-0.0566 -0.71934,-0.11068 -1.077225,-0.16187 0.0307,-1.38577 -0.04912,-2.48703 -0.325403,-3.34189 -0.265866,-0.86115 -0.645934,-1.36804 -1.142109,-1.47207 -0.384101,-0.0807 -0.73459,0.0917 -1.035127,0.52081 -0.300488,0.42911 -0.469523,1.0325 -0.510644,1.79678 -0.03533,0.65607 0.04162,1.29639 0.221198,1.90703 0.174755,0.57769 0.744686,1.49923 1.680426,2.57374 0.808733,0.93735 1.513015,1.78126 2.000363,2.43476 0.04893,0.0658 0.09635,0.13042 0.142235,0.19394 0.0093,0.0125 0.01858,0.025 0.02784,0.0376 0.512142,0.69848 0.954035,1.55666 1.375208,2.57059 0.428309,1.0223 0.78872,2.17742 1.136334,3.54089 0.618566,2.42625 1.003208,4.41265 0.709234,6.21182 -0.0701,0.42903 -0.163509,0.833 -0.28424,1.21017 -0.03353,0.10474 -0.06914,0.20732 -0.106896,0.30769 -0.396494,1.0535 -1.039465,1.8685 -1.921738,2.31484 -1.434298,0.72561 -2.869206,0.12791 -3.973615,-1.75324 0.15701,0.89923 0.325017,1.79826 0.503576,2.69851 -0.04711,0.0129 -0.09428,0.0257 -0.141512,0.0382 -0.06929,0.0184 -0.138692,0.0363 -0.208212,0.0537 -0.854931,0.21386 -1.727257,0.35269 -2.60552,0.42079 z m -7.269826,-0.15197 c 0.190113,-1.84621 0.336657,-3.69165 0.440334,-5.53883 0.52667,0.0885 1.054213,0.16103 1.582067,0.21525 0.180785,-6.82537 -0.02,-13.55877 -0.512706,-20.40888 0,0 0,0 0,0 0,0 0,-1e-5 0,-1e-5 0,0 0,0 0,0 -0.0421,-0.58469 -0.08626,-1.16942 -0.132393,-1.75435 10e-7,0 -0.02609,0.002 -0.02608,0.002 -0.533516,0.0451 -1.066959,0.10618 -1.599951,0.18206 -0.212987,-1.85716 -0.462647,-3.71474 -0.746771,-5.57588 0.574455,-0.10977 1.152734,-0.19883 1.734432,-0.26551 0.228672,-0.0262 0.457746,-0.0487 0.687102,-0.0675 1.52685,-0.12529 3.064772,-0.0874 4.57877,0.11334 -0.116132,1.87786 -0.197644,3.75832 -0.249116,5.6375 -0.534542,-0.0528 -1.073551,-0.0874 -1.61428,-0.10371 0.08888,7.17814 0.354158,15.1627 0.577799,22.34371 0.527615,-0.0163 1.05373,-0.0544 1.574778,-0.11464 0.125217,1.88239 0.2671,3.76898 0.42285,5.65196 -1.286776,0.18614 -2.596628,0.22409 -3.893367,0.11698 -0.230374,-0.0189 -0.460189,-0.042 -0.689413,-0.0691 -0.71728,-0.0847 -1.428952,-0.20806 -2.134051,-0.36469 z m -10.908582,-3.41749 c 0.639755,-1.40004 1.171383,-2.80156 1.595573,-4.21077 0.359906,0.12895 0.721395,0.25289 1.084636,0.37173 1.531139,-5.82314 1.484974,-11.65693 0.01452,-17.89011 -0.327226,0.11837 -0.652603,0.24049 -0.976233,0.36627 -0.389555,-1.5316 -0.875835,-3.08572 -1.45404,-4.66921 0.56834,-0.29353 1.142122,-0.57194 1.721687,-0.83463 0.243773,-0.11055 0.488703,-0.21821 0.73475,-0.32283 0.541312,-0.22988 1.088044,-0.44514 1.639808,-0.64424 0.461904,1.74547 0.857529,3.47088 1.18208,5.18538 -0.28111,0.0798 -0.561573,0.16287 -0.841348,0.24908 0.441817,2.18167 0.751722,4.33173 0.92207,6.46662 0.701103,-0.0958 1.402353,-0.18461 2.102282,-0.266 -0.168032,-2.25668 -0.448078,-4.51853 -0.832778,-6.80541 -0.27316,0.0664 -0.545862,0.13615 -0.81807,0.20907 -0.313832,-1.73414 -0.694749,-3.47761 -1.137936,-5.24004 1.399777,-0.47325 2.825668,-0.83874 4.271202,-1.0744 0.286226,1.84468 0.541211,3.67473 0.761164,5.5079 -0.341532,0.0491 -0.682856,0.10403 -1.023891,0.16471 0.97962,7.19414 1.217872,14.01987 0.657213,21.1533 0.37607,0.0419 0.751926,0.0758 1.127451,0.10122 -0.09414,1.82575 -0.226877,3.64806 -0.394808,5.48211 -1.661253,-0.17934 -3.307698,-0.54921 -4.925666,-1.06087 0.414644,-1.68752 0.754462,-3.36923 1.018664,-5.05277 0.301655,0.066 0.603721,0.12794 0.906152,0.18555 0.373571,-2.78728 0.565282,-5.56095 0.576636,-8.35538 -0.711727,-0.003 -1.423779,-0.0135 -2.138198,-0.0281 10e-7,0 -0.008,-2.1e-4 -0.008,-2.1e-4 -0.06168,2.62773 -0.346666,5.22859 -0.859321,7.83103 0.06033,0.016 0.120698,0.0319 0.181105,0.0476 0.250154,0.0643 0.500763,0.12626 0.751806,0.18555 -0.285158,1.65587 -0.650188,3.30947 -1.094599,4.96795 -0.264918,-0.0905 -0.528783,-0.18454 -0.791535,-0.28193 -0.252443,-0.0935 -0.504056,-0.19002 -0.754876,-0.2895 -1.080477,-0.42882 -2.14546,-0.91276 -3.197483,-1.44867 z m -1.403475,-5.4125 c -0.427708,1.22149 -0.992094,2.44604 -1.694146,3.66385 -1.509212,-1.37612 -2.965832,-2.78415 -4.365797,-4.1616 0.727639,-0.73123 1.319844,-1.47383 1.777676,-2.21869 0.337014,0.21864 0.675922,0.43795 1.016267,0.65717 1.774243,-3.36056 1.484562,-6.76167 -0.898637,-9.63945 -0.301117,0.21277 -0.600432,0.42339 -0.898787,0.63204 -0.592232,-0.63045 -1.319916,-1.22906 -2.184392,-1.78643 1.135397,-1.27218 2.355119,-2.65266 3.578751,-3.99804 0.865927,-0.95205 2.082916,-1.16566 3.420593,-0.29432 1.338,0.86607 2.59223,2.65142 3.335357,5.17556 0.424053,1.44036 0.585166,2.81903 0.544985,4.02633 -0.04178,1.19637 -0.258925,2.0964 -0.551662,2.67513 -0.291613,0.57237 -0.653634,0.90927 -1.050309,1.03928 -0.395056,0.12049 -0.876344,0.0953 -1.44682,-0.0486 -0.255323,-0.0647 -0.509871,-0.12973 -0.763668,-0.19518 -0.14421,1.2421 -0.4684,2.49937 -0.972681,3.75718 0.381824,0.23921 0.76637,0.47778 1.153576,0.715 0,0 -3.06e-4,8.1e-4 -3.06e-4,8.1e-4 z m -0.207847,-7.63499 c 5.39e-4,-4e-5 0.300172,-0.0225 0.300711,-0.0226 0.689397,-0.0512 1.108203,-0.3762 1.189047,-1.04545 0.0808,-0.66543 -0.005,-1.50819 -0.320356,-2.4451 -0.266881,-0.7929 -0.618427,-1.42454 -1.005826,-1.87302 -0.392655,-0.45892 -0.727223,-0.6694 -0.962592,-0.66424 -0.242515,-0.004 -0.552815,0.1345 -0.935262,0.40671 -0.02584,0.0184 -0.329811,0.23483 -0.35565,0.25322 1.139836,1.70086 1.83284,3.51603 2.089897,5.39006 0,0 3.1e-5,4e-4 3.1e-5,4e-4 z m -7.304484,-5.162 a 30,30 0 0 0 -3.339848,5.28391 30,30 0 0 0 4.552694,6.73293 6.1800361,8.1056995 0 0 0 1.505851,-5.30252 6.1800361,8.1056995 0 0 0 -2.718697,-6.71432 z m -0.102836,1.99729 a 1,1 0 0 1 0.999939,0.99994 1,1 0 0 1 -0.999939,0.99994 1,1 0 0 1 -0.999939,-0.99994 1,1 0 0 1 0.999939,-0.99994 z" />
    </g>
  </g>
</svg>
